<?xml version="1.0" encoding="utf-8"?>
<!-- Generator: Adobe Illustrator 16.0.4, SVG Export Plug-In . SVG Version: 6.00 Build 0)  -->
<!DOCTYPE svg PUBLIC "-//W3C//DTD SVG 1.1//EN" "http://www.w3.org/Graphics/SVG/1.1/DTD/svg11.dtd">
<svg version="1.1" id="Layer_1" xmlns="http://www.w3.org/2000/svg" xmlns:xlink="http://www.w3.org/1999/xlink" x="0px" y="0px"
	 width="349px" height="134.465px" viewBox="0 0 349 134.465" enable-background="new 0 0 349 134.465" xml:space="preserve">
<g>
	<rect x="138.736" y="19.697" fill="#002271" width="7.314" height="63.15"/>
</g>
<g>
	<g>
		<path fill="#002271" d="M159.338,51.206c0-22.675,14.767-32.755,32.73-32.755c17.964,0,32.729,10.08,32.729,32.846
			c0,22.704-14.766,32.795-32.729,32.795c-17.963,0-32.73-10.091-32.73-32.795V51.206z M191.977,23.245
			c-12.73,0-24.853,8.052-24.853,27.974c0,19.836,12.122,27.904,24.944,27.904c12.821,0,24.943-8.068,24.943-27.904
			c0-19.922-12.122-27.974-24.943-27.974H191.977z"/>
		<path fill="#002271" d="M239.588,82.847v-63.15h21.395c22.995,0,33.41,10.758,33.41,31.435c0,20.211-9.664,31.715-33.18,31.715
			H239.588z M260.699,77.905c17.388,0,25.933-8.903,25.933-26.661c0-16.942-7.554-26.602-26.069-26.602h-13.389v53.263H260.699z"/>
		<path fill="#002271" d="M305.948,82.847v-63.15h15.736c15.959,0,22.19,6.564,22.19,18.297c0,13.57-7.852,18.76-23.191,18.76
			h-7.666v26.093H305.948z M320.582,51.994c11.093,0,16.072-3.86,16.072-13.981c0-9.078-4.5-13.552-14.994-13.552h-8.643v27.533
			H320.582z"/>
		<path fill="#002271" d="M47.958,67.339c-13.912-4.18-28.521-3.326-41.051,2.605L5.74,70.497
			c1.64,25.83,22.589,46.407,48.577,47.453L47.958,67.339z"/>
		<path fill="#002271" d="M82.243,75.737c-6.043,0-12.151-0.872-18.149-2.576l-5.628,44.788
			c25.966-1.045,46.901-21.588,48.572-47.389C99.26,73.996,90.825,75.737,82.243,75.737"/>
		<polygon fill="#002271" points="52.496,121.492 56.392,134.465 60.287,121.492 		"/>
		<path fill="#008EB5" d="M52.301,16.64C27.275,18.638,7.372,38.775,5.744,63.905c12.667-5.596,27.088-6.631,41.01-3.12
			L52.301,16.64z"/>
		<path fill="#008EB5" d="M60.482,16.64l5.498,43.758l0.921,7.327c13.28,3.496,27.067,2.431,38.975-3.205l1.167-0.553
			C105.445,38.809,85.529,18.64,60.482,16.64"/>
		<path fill="#002271" d="M48.689,61.303c3.004,0.853,5.982,1.9,8.906,3.181c2.378,1.042,4.795,1.909,7.23,2.641l-6.804-54.153
			h2.266L56.391,0l-3.895,12.972h2.265L48.689,61.303z"/>
		<rect x="139.557" y="95.062" fill="#002271" width="2.276" height="10.353"/>
		<polygon fill="#002271" points="147.228,95.062 151.548,102.007 151.578,102.007 151.578,95.062 153.708,95.062 153.708,105.416 
			151.433,105.416 147.125,98.484 147.097,98.484 147.097,105.416 144.965,105.416 144.965,95.062 		"/>
		<polygon fill="#002271" points="156.029,96.976 156.029,95.062 164.511,95.062 164.511,96.976 161.408,96.976 161.408,105.415 
			159.132,105.415 159.132,96.976 		"/>
		<polygon fill="#002271" points="174.575,95.062 174.575,96.976 169.108,96.976 169.108,99.194 174.125,99.194 174.125,100.963 
			169.108,100.963 169.108,103.5 174.691,103.5 174.691,105.416 166.832,105.416 166.832,95.062 		"/>
		<path fill="#002271" d="M182.941,95.062c0.464,0,0.882,0.075,1.254,0.225c0.372,0.149,0.691,0.354,0.957,0.616
			c0.266,0.261,0.469,0.563,0.609,0.906c0.14,0.343,0.21,0.713,0.21,1.11c0,0.608-0.128,1.136-0.384,1.58
			c-0.256,0.444-0.674,0.783-1.254,1.015v0.029c0.28,0.077,0.512,0.196,0.696,0.355c0.183,0.159,0.333,0.348,0.45,0.566
			c0.115,0.218,0.2,0.457,0.253,0.718c0.053,0.26,0.089,0.521,0.109,0.783c0.01,0.164,0.019,0.357,0.029,0.58
			c0.009,0.221,0.027,0.449,0.051,0.68c0.024,0.233,0.062,0.453,0.116,0.661c0.053,0.208,0.133,0.384,0.239,0.529H184
			c-0.126-0.328-0.204-0.72-0.232-1.175c-0.03-0.454-0.073-0.889-0.131-1.305c-0.077-0.541-0.242-0.937-0.493-1.189
			c-0.251-0.251-0.662-0.377-1.232-0.377h-2.277v4.046h-2.277V95.062H182.941z M182.129,99.745c0.522,0,0.914-0.115,1.174-0.348
			c0.262-0.231,0.392-0.609,0.392-1.131c0-0.502-0.13-0.867-0.392-1.094c-0.26-0.228-0.652-0.341-1.174-0.341h-2.494v2.914H182.129z
			"/>
		<polygon fill="#002271" points="191.221,95.062 195.541,102.007 195.57,102.007 195.57,95.062 197.701,95.062 197.701,105.416 
			195.426,105.416 191.118,98.484 191.089,98.484 191.089,105.416 188.958,105.416 188.958,95.062 		"/>
		<path fill="#002271" d="M205.995,95.062l3.872,10.353h-2.363l-0.783-2.306h-3.872l-0.812,2.306h-2.291l3.915-10.353H205.995z
			 M206.126,101.413l-1.305-3.799h-0.029l-1.349,3.799H206.126z"/>
		<polygon fill="#002271" points="209.751,96.976 209.751,95.062 218.233,95.062 218.233,96.976 215.131,96.976 215.131,105.415 
			212.854,105.415 212.854,96.976 		"/>
		<rect x="220.554" y="95.062" fill="#002271" width="2.276" height="10.353"/>
		<path fill="#002271" d="M225.86,98.129c0.231-0.662,0.565-1.24,1-1.732c0.435-0.493,0.969-0.88,1.603-1.16
			c0.633-0.281,1.346-0.421,2.139-0.421c0.802,0,1.518,0.14,2.146,0.421c0.629,0.28,1.16,0.667,1.596,1.16
			c0.435,0.492,0.769,1.07,1,1.732c0.232,0.662,0.349,1.38,0.349,2.153c0,0.754-0.116,1.457-0.349,2.11
			c-0.231,0.652-0.565,1.221-1,1.704c-0.436,0.483-0.967,0.862-1.596,1.138c-0.628,0.276-1.344,0.414-2.146,0.414
			c-0.793,0-1.506-0.138-2.139-0.414c-0.634-0.276-1.168-0.655-1.603-1.138s-0.769-1.052-1-1.704
			c-0.233-0.653-0.349-1.356-0.349-2.11C225.512,99.509,225.627,98.791,225.86,98.129 M227.94,101.551
			c0.102,0.411,0.264,0.78,0.486,1.109c0.222,0.329,0.512,0.592,0.87,0.79c0.357,0.199,0.792,0.297,1.305,0.297
			c0.512,0,0.947-0.098,1.305-0.297c0.357-0.198,0.647-0.461,0.87-0.79s0.385-0.698,0.485-1.109
			c0.102-0.411,0.152-0.834,0.152-1.269c0-0.454-0.051-0.894-0.152-1.319c-0.101-0.426-0.263-0.805-0.485-1.139
			c-0.223-0.333-0.513-0.599-0.87-0.797c-0.357-0.198-0.793-0.297-1.305-0.297c-0.513,0-0.947,0.099-1.305,0.297
			c-0.358,0.198-0.648,0.464-0.87,0.797c-0.223,0.334-0.385,0.713-0.486,1.139c-0.102,0.425-0.152,0.865-0.152,1.319
			C227.788,100.717,227.839,101.14,227.94,101.551"/>
		<polygon fill="#002271" points="240.636,95.062 244.957,102.007 244.985,102.007 244.985,95.062 247.117,95.062 247.117,105.416 
			244.841,105.416 240.533,98.484 240.505,98.484 240.505,105.416 238.374,105.416 238.374,95.062 		"/>
		<path fill="#002271" d="M255.411,95.062l3.872,10.353h-2.363l-0.783-2.306h-3.872l-0.812,2.306h-2.291l3.915-10.353H255.411z
			 M255.542,101.413l-1.305-3.799h-0.029l-1.349,3.799H255.542z"/>
		<polygon fill="#002271" points="263.59,95.062 263.59,103.5 268.636,103.5 268.636,105.416 261.313,105.416 261.313,95.062 		"/>
		<path fill="#002271" d="M276.104,98.129c0.231-0.662,0.565-1.24,1-1.732c0.436-0.493,0.969-0.88,1.603-1.16
			c0.633-0.281,1.346-0.421,2.139-0.421c0.802,0,1.518,0.14,2.146,0.421c0.629,0.28,1.16,0.667,1.596,1.16
			c0.435,0.492,0.769,1.07,1,1.732c0.232,0.662,0.349,1.38,0.349,2.153c0,0.754-0.116,1.457-0.349,2.11
			c-0.231,0.652-0.565,1.221-1,1.704c-0.436,0.483-0.967,0.862-1.596,1.138c-0.628,0.276-1.344,0.414-2.146,0.414
			c-0.793,0-1.506-0.138-2.139-0.414c-0.634-0.276-1.167-0.655-1.603-1.138c-0.435-0.483-0.769-1.052-1-1.704
			c-0.232-0.653-0.349-1.356-0.349-2.11C275.755,99.509,275.871,98.791,276.104,98.129 M278.184,101.551
			c0.102,0.411,0.264,0.78,0.486,1.109c0.222,0.329,0.512,0.592,0.87,0.79c0.357,0.199,0.792,0.297,1.305,0.297
			c0.512,0,0.947-0.098,1.305-0.297c0.357-0.198,0.647-0.461,0.87-0.79s0.385-0.698,0.485-1.109
			c0.102-0.411,0.152-0.834,0.152-1.269c0-0.454-0.051-0.894-0.152-1.319c-0.101-0.426-0.263-0.805-0.485-1.139
			c-0.223-0.333-0.513-0.599-0.87-0.797c-0.357-0.198-0.793-0.297-1.305-0.297c-0.513,0-0.947,0.099-1.305,0.297
			c-0.358,0.198-0.648,0.464-0.87,0.797c-0.223,0.334-0.385,0.713-0.486,1.139c-0.102,0.425-0.152,0.865-0.152,1.319
			C278.031,100.717,278.082,101.14,278.184,101.551"/>
		<path fill="#002271" d="M295.258,97.824c-0.136-0.218-0.305-0.408-0.508-0.572c-0.203-0.165-0.433-0.293-0.688-0.385
			s-0.524-0.138-0.805-0.138c-0.513,0-0.947,0.1-1.305,0.297c-0.358,0.198-0.648,0.465-0.87,0.798
			c-0.223,0.334-0.385,0.713-0.486,1.139c-0.102,0.424-0.152,0.865-0.152,1.319c0,0.435,0.051,0.857,0.152,1.269
			c0.102,0.411,0.264,0.78,0.486,1.109c0.222,0.329,0.512,0.592,0.87,0.79c0.357,0.198,0.792,0.297,1.305,0.297
			c0.696,0,1.239-0.212,1.631-0.638c0.392-0.425,0.631-0.985,0.718-1.681h2.204c-0.058,0.647-0.208,1.232-0.449,1.753
			c-0.242,0.523-0.561,0.967-0.956,1.334c-0.397,0.369-0.861,0.649-1.394,0.842c-0.531,0.194-1.116,0.29-1.754,0.29
			c-0.793,0-1.506-0.137-2.139-0.414c-0.634-0.275-1.167-0.654-1.603-1.138c-0.435-0.483-0.769-1.051-1-1.704
			c-0.232-0.652-0.349-1.355-0.349-2.109c0-0.773,0.116-1.491,0.349-2.153c0.231-0.662,0.565-1.241,1-1.733
			c0.436-0.493,0.969-0.88,1.603-1.16c0.633-0.28,1.346-0.421,2.139-0.421c0.57,0,1.109,0.082,1.616,0.247
			c0.508,0.164,0.962,0.404,1.363,0.718s0.732,0.703,0.993,1.167s0.425,0.995,0.493,1.595h-2.204
			C295.479,98.281,295.393,98.042,295.258,97.824"/>
		<polygon fill="#002271" points="308.234,95.062 308.234,96.976 302.769,96.976 302.769,99.194 307.785,99.194 307.785,100.963 
			302.769,100.963 302.769,103.5 308.351,103.5 308.351,105.416 300.492,105.416 300.492,95.062 		"/>
		<path fill="#002271" d="M316.18,95.062l3.872,10.353h-2.363l-0.783-2.306h-3.872l-0.812,2.306h-2.291l3.915-10.353H316.18z
			 M316.311,101.413l-1.305-3.799h-0.029l-1.349,3.799H316.311z"/>
		<polygon fill="#002271" points="324.345,95.062 328.666,102.007 328.694,102.007 328.694,95.062 330.826,95.062 330.826,105.416 
			328.55,105.416 324.243,98.484 324.214,98.484 324.214,105.416 322.083,105.416 322.083,95.062 		"/>
		<path fill="#002271" d="M144.023,114.063c0.667,0,1.288,0.106,1.863,0.318c0.576,0.213,1.074,0.532,1.494,0.957
			c0.421,0.426,0.749,0.957,0.986,1.595c0.237,0.638,0.355,1.387,0.355,2.248c0,0.754-0.096,1.45-0.29,2.088
			c-0.193,0.637-0.485,1.189-0.877,1.653c-0.391,0.464-0.879,0.829-1.464,1.095s-1.274,0.398-2.067,0.398h-4.466v-10.352H144.023z
			 M143.864,122.501c0.329,0,0.647-0.053,0.957-0.159c0.309-0.106,0.585-0.283,0.826-0.529c0.242-0.248,0.435-0.569,0.58-0.965
			c0.145-0.396,0.218-0.879,0.218-1.45c0-0.522-0.051-0.993-0.152-1.414c-0.102-0.42-0.269-0.78-0.501-1.08
			c-0.232-0.299-0.539-0.529-0.92-0.689c-0.383-0.159-0.854-0.239-1.414-0.239h-1.624v6.525H143.864z"/>
		<rect x="151.433" y="114.062" fill="#002271" width="2.276" height="10.353"/>
		<path fill="#002271" d="M158.582,121.863c0.125,0.241,0.292,0.437,0.5,0.587s0.452,0.261,0.732,0.334
			c0.281,0.072,0.571,0.108,0.87,0.108c0.203,0,0.421-0.017,0.653-0.051s0.449-0.099,0.652-0.195
			c0.203-0.097,0.372-0.229,0.508-0.399c0.135-0.169,0.203-0.384,0.203-0.646c0-0.279-0.09-0.507-0.268-0.68
			c-0.18-0.175-0.414-0.32-0.704-0.436c-0.29-0.116-0.619-0.218-0.986-0.305c-0.367-0.087-0.739-0.183-1.116-0.29
			c-0.387-0.095-0.764-0.215-1.131-0.354c-0.368-0.141-0.696-0.321-0.986-0.544c-0.29-0.223-0.525-0.5-0.703-0.834
			c-0.18-0.333-0.269-0.737-0.269-1.211c0-0.531,0.114-0.993,0.341-1.385c0.227-0.391,0.524-0.718,0.892-0.978
			c0.367-0.261,0.783-0.454,1.247-0.58c0.464-0.125,0.928-0.189,1.392-0.189c0.541,0,1.061,0.061,1.559,0.182
			c0.497,0.121,0.94,0.316,1.326,0.587c0.387,0.27,0.694,0.616,0.921,1.037c0.227,0.42,0.341,0.93,0.341,1.529h-2.204
			c-0.02-0.309-0.085-0.565-0.196-0.768c-0.111-0.204-0.259-0.363-0.442-0.479c-0.184-0.116-0.394-0.198-0.631-0.246
			c-0.237-0.049-0.496-0.072-0.776-0.072c-0.183,0-0.367,0.019-0.551,0.057c-0.183,0.039-0.35,0.107-0.5,0.203
			c-0.15,0.097-0.273,0.218-0.37,0.363c-0.096,0.145-0.145,0.329-0.145,0.551c0,0.203,0.039,0.368,0.116,0.493
			c0.078,0.126,0.23,0.242,0.457,0.347c0.227,0.107,0.541,0.213,0.942,0.32c0.402,0.106,0.926,0.242,1.574,0.406
			c0.193,0.039,0.461,0.108,0.805,0.21c0.343,0.101,0.683,0.264,1.022,0.486c0.338,0.222,0.631,0.52,0.877,0.892
			c0.247,0.372,0.37,0.847,0.37,1.428c0,0.473-0.092,0.914-0.276,1.319c-0.184,0.406-0.457,0.757-0.819,1.052
			c-0.362,0.295-0.812,0.524-1.349,0.688c-0.536,0.164-1.157,0.247-1.863,0.247c-0.57,0-1.123-0.07-1.66-0.211
			c-0.537-0.14-1.01-0.359-1.421-0.659s-0.737-0.683-0.979-1.146c-0.242-0.464-0.357-1.016-0.348-1.654h2.204
			C158.393,121.326,158.456,121.621,158.582,121.863"/>
		<path fill="#002271" d="M174.023,116.824c-0.136-0.218-0.305-0.408-0.508-0.572c-0.202-0.165-0.432-0.293-0.688-0.385
			c-0.257-0.092-0.525-0.138-0.805-0.138c-0.513,0-0.948,0.1-1.305,0.297c-0.358,0.198-0.648,0.465-0.87,0.798
			c-0.222,0.334-0.385,0.713-0.486,1.139c-0.101,0.424-0.152,0.865-0.152,1.319c0,0.435,0.051,0.857,0.152,1.269
			c0.101,0.411,0.264,0.78,0.486,1.109c0.222,0.329,0.512,0.592,0.87,0.79c0.357,0.198,0.792,0.297,1.305,0.297
			c0.696,0,1.24-0.212,1.631-0.638c0.391-0.425,0.631-0.985,0.718-1.681h2.204c-0.058,0.647-0.208,1.232-0.449,1.753
			c-0.242,0.522-0.561,0.967-0.957,1.334c-0.397,0.368-0.861,0.648-1.393,0.842c-0.531,0.193-1.116,0.29-1.754,0.29
			c-0.793,0-1.506-0.138-2.139-0.414c-0.633-0.275-1.167-0.654-1.602-1.139c-0.435-0.482-0.769-1.051-1.001-1.704
			c-0.232-0.652-0.348-1.355-0.348-2.109c0-0.773,0.116-1.491,0.348-2.153c0.232-0.662,0.566-1.241,1.001-1.733
			c0.435-0.493,0.969-0.88,1.602-1.16c0.633-0.28,1.346-0.421,2.139-0.421c0.57,0,1.109,0.082,1.617,0.247
			c0.507,0.164,0.962,0.404,1.363,0.718s0.732,0.703,0.993,1.167c0.261,0.464,0.425,0.995,0.493,1.595h-2.204
			C174.246,117.281,174.158,117.042,174.023,116.824"/>
		<path fill="#002271" d="M179.156,117.129c0.232-0.662,0.565-1.24,1-1.732c0.435-0.493,0.97-0.88,1.603-1.16
			c0.633-0.281,1.346-0.421,2.139-0.421c0.802,0,1.517,0.14,2.146,0.421c0.628,0.28,1.159,0.667,1.594,1.16
			c0.435,0.492,0.769,1.07,1.001,1.732c0.232,0.662,0.348,1.38,0.348,2.153c0,0.754-0.116,1.457-0.348,2.11
			c-0.232,0.652-0.566,1.221-1.001,1.704s-0.966,0.862-1.594,1.138c-0.629,0.276-1.344,0.414-2.146,0.414
			c-0.793,0-1.506-0.138-2.139-0.414c-0.633-0.275-1.168-0.654-1.603-1.138s-0.768-1.052-1-1.704
			c-0.232-0.653-0.348-1.356-0.348-2.11C178.808,118.509,178.924,117.791,179.156,117.129 M181.237,120.551
			c0.101,0.411,0.263,0.78,0.485,1.109c0.223,0.329,0.513,0.592,0.87,0.791c0.358,0.198,0.793,0.297,1.306,0.297
			c0.512,0,0.947-0.099,1.304-0.297c0.358-0.198,0.648-0.462,0.87-0.791c0.223-0.329,0.385-0.698,0.486-1.109
			c0.102-0.411,0.153-0.834,0.153-1.269c0-0.454-0.051-0.894-0.153-1.319c-0.101-0.426-0.263-0.805-0.486-1.139
			c-0.222-0.333-0.512-0.599-0.87-0.797c-0.357-0.198-0.792-0.297-1.304-0.297c-0.513,0-0.948,0.099-1.306,0.297
			c-0.357,0.198-0.647,0.464-0.87,0.797c-0.222,0.334-0.384,0.713-0.485,1.139c-0.102,0.425-0.152,0.865-0.152,1.319
			C181.085,119.717,181.135,120.14,181.237,120.551"/>
		<polygon fill="#002271" points="193.917,124.415 190.567,114.062 192.902,114.062 195.207,121.341 195.236,121.341 
			197.571,114.062 199.92,114.062 196.483,124.415 		"/>
		<polygon fill="#002271" points="209.679,114.062 209.679,115.976 204.213,115.976 204.213,118.194 209.229,118.194 
			209.229,119.963 204.213,119.963 204.213,122.5 209.795,122.5 209.795,124.415 201.937,124.415 201.937,114.062 		"/>
		<path fill="#002271" d="M218.045,114.062c0.464,0,0.882,0.075,1.254,0.225c0.373,0.149,0.691,0.354,0.957,0.616
			c0.266,0.261,0.469,0.563,0.609,0.906c0.139,0.343,0.21,0.713,0.21,1.11c0,0.608-0.128,1.136-0.384,1.58
			c-0.257,0.444-0.675,0.783-1.255,1.015v0.029c0.28,0.077,0.513,0.196,0.696,0.355c0.184,0.159,0.334,0.348,0.449,0.566
			c0.116,0.218,0.201,0.457,0.254,0.718c0.054,0.26,0.09,0.521,0.109,0.783c0.009,0.164,0.019,0.357,0.028,0.58
			c0.01,0.222,0.026,0.449,0.051,0.681c0.024,0.232,0.063,0.452,0.116,0.66s0.133,0.385,0.238,0.529h-2.275
			c-0.126-0.328-0.203-0.72-0.232-1.175c-0.028-0.454-0.072-0.889-0.13-1.305c-0.078-0.542-0.242-0.938-0.493-1.189
			c-0.252-0.251-0.662-0.377-1.232-0.377h-2.276v4.046h-2.276v-10.353H218.045z M217.233,118.745c0.521,0,0.913-0.115,1.174-0.348
			c0.261-0.231,0.392-0.609,0.392-1.131c0-0.502-0.131-0.867-0.392-1.094c-0.261-0.228-0.653-0.341-1.174-0.341h-2.494v2.914
			H217.233z"/>
		<polygon fill="#002271" points="222.409,114.062 224.961,114.062 227.383,118.151 229.79,114.062 232.327,114.062 
			228.485,120.442 228.485,124.415 226.208,124.415 226.208,120.383 		"/>
		<path fill="#002271" d="M244.16,114.062c0.646,0,1.198,0.094,1.652,0.282c0.453,0.189,0.824,0.438,1.109,0.747
			c0.285,0.31,0.493,0.662,0.624,1.059c0.13,0.396,0.195,0.806,0.195,1.232c0,0.415-0.065,0.824-0.195,1.225
			c-0.131,0.401-0.339,0.757-0.624,1.066c-0.285,0.31-0.656,0.558-1.109,0.746c-0.454,0.189-1.006,0.284-1.652,0.284h-2.393v3.71
			h-2.276v-10.352H244.16z M243.536,118.934c0.261,0,0.513-0.019,0.754-0.058c0.242-0.038,0.454-0.113,0.639-0.224
			c0.183-0.112,0.33-0.269,0.441-0.472c0.111-0.203,0.167-0.469,0.167-0.797c0-0.329-0.056-0.595-0.167-0.798
			s-0.259-0.36-0.441-0.47c-0.185-0.112-0.396-0.187-0.639-0.226c-0.241-0.038-0.493-0.058-0.754-0.058h-1.769v3.103H243.536z"/>
		<path fill="#002271" d="M255.877,114.062c0.464,0,0.882,0.075,1.254,0.225c0.372,0.149,0.691,0.354,0.957,0.616
			c0.266,0.261,0.469,0.563,0.609,0.906c0.139,0.343,0.21,0.713,0.21,1.11c0,0.608-0.128,1.136-0.384,1.58
			c-0.257,0.444-0.675,0.783-1.255,1.015v0.029c0.28,0.077,0.513,0.196,0.696,0.355c0.184,0.159,0.334,0.348,0.449,0.566
			c0.116,0.218,0.201,0.457,0.254,0.718c0.054,0.26,0.09,0.521,0.109,0.783c0.009,0.164,0.018,0.357,0.028,0.58
			c0.01,0.222,0.026,0.449,0.051,0.681c0.024,0.232,0.062,0.452,0.116,0.66c0.053,0.208,0.133,0.385,0.238,0.529h-2.275
			c-0.126-0.328-0.203-0.72-0.232-1.175c-0.028-0.454-0.072-0.889-0.13-1.305c-0.078-0.542-0.242-0.938-0.493-1.189
			c-0.252-0.251-0.662-0.377-1.232-0.377h-2.276v4.046h-2.277v-10.353H255.877z M255.065,118.745c0.521,0,0.913-0.115,1.174-0.348
			c0.261-0.231,0.392-0.609,0.392-1.131c0-0.502-0.131-0.867-0.392-1.094c-0.261-0.228-0.653-0.341-1.174-0.341h-2.494v2.914
			H255.065z"/>
		<path fill="#002271" d="M261.793,117.129c0.231-0.662,0.565-1.24,1-1.732c0.435-0.493,0.969-0.88,1.602-1.16
			c0.634-0.281,1.347-0.421,2.14-0.421c0.802,0,1.518,0.14,2.146,0.421c0.629,0.28,1.16,0.667,1.596,1.16
			c0.435,0.492,0.769,1.07,1,1.732c0.232,0.662,0.349,1.38,0.349,2.153c0,0.754-0.116,1.457-0.349,2.11
			c-0.231,0.652-0.565,1.221-1,1.704c-0.436,0.483-0.967,0.862-1.596,1.138c-0.628,0.276-1.344,0.414-2.146,0.414
			c-0.793,0-1.506-0.138-2.14-0.414c-0.633-0.275-1.167-0.654-1.602-1.138s-0.769-1.052-1-1.704
			c-0.233-0.653-0.349-1.356-0.349-2.11C261.444,118.509,261.56,117.791,261.793,117.129 M263.873,120.551
			c0.102,0.411,0.264,0.78,0.486,1.109c0.222,0.329,0.512,0.592,0.869,0.791c0.358,0.198,0.793,0.297,1.306,0.297
			c0.512,0,0.947-0.099,1.305-0.297s0.647-0.462,0.87-0.791c0.223-0.329,0.385-0.698,0.485-1.109
			c0.102-0.411,0.152-0.834,0.152-1.269c0-0.454-0.051-0.894-0.152-1.319c-0.101-0.426-0.263-0.805-0.485-1.139
			c-0.223-0.333-0.513-0.599-0.87-0.797c-0.357-0.198-0.793-0.297-1.305-0.297c-0.513,0-0.947,0.099-1.306,0.297
			c-0.357,0.198-0.647,0.464-0.869,0.797c-0.223,0.334-0.385,0.713-0.486,1.139c-0.102,0.425-0.152,0.865-0.152,1.319
			C263.721,119.717,263.771,120.14,263.873,120.551"/>
		<path fill="#002271" d="M280.439,124.335c-0.493,0.208-0.991,0.312-1.493,0.312c-0.793,0-1.506-0.137-2.139-0.413
			c-0.634-0.275-1.167-0.654-1.603-1.138c-0.435-0.483-0.769-1.052-1-1.704c-0.232-0.653-0.349-1.356-0.349-2.11
			c0-0.773,0.116-1.491,0.349-2.153c0.231-0.662,0.565-1.24,1-1.732c0.436-0.494,0.969-0.88,1.603-1.161
			c0.633-0.28,1.346-0.421,2.139-0.421c0.531,0,1.046,0.081,1.544,0.24c0.498,0.159,0.947,0.394,1.349,0.703
			s0.732,0.691,0.993,1.145c0.261,0.455,0.421,0.977,0.479,1.567h-2.175c-0.136-0.58-0.396-1.016-0.783-1.306
			c-0.387-0.289-0.855-0.434-1.406-0.434c-0.513,0-0.946,0.099-1.305,0.296c-0.358,0.199-0.648,0.465-0.87,0.798
			c-0.223,0.334-0.385,0.713-0.486,1.139c-0.102,0.425-0.152,0.865-0.152,1.319c0,0.435,0.051,0.858,0.152,1.269
			c0.102,0.411,0.264,0.78,0.486,1.109c0.222,0.329,0.512,0.592,0.87,0.79c0.358,0.197,0.792,0.297,1.305,0.297
			c0.754,0,1.336-0.19,1.747-0.572s0.65-0.936,0.718-1.66h-2.291v-1.697h4.35v5.597h-1.449l-0.232-1.175
			C281.382,123.763,280.933,124.128,280.439,124.335"/>
		<path fill="#002271" d="M292.025,114.062c0.463,0,0.881,0.075,1.253,0.225c0.373,0.149,0.691,0.354,0.957,0.616
			c0.266,0.261,0.469,0.563,0.609,0.906c0.14,0.343,0.21,0.713,0.21,1.11c0,0.608-0.128,1.136-0.384,1.58
			c-0.257,0.444-0.675,0.783-1.255,1.015v0.029c0.28,0.077,0.513,0.196,0.696,0.355c0.184,0.159,0.334,0.348,0.449,0.566
			c0.116,0.218,0.201,0.457,0.254,0.718c0.054,0.26,0.09,0.521,0.109,0.783c0.009,0.164,0.019,0.357,0.028,0.58
			c0.01,0.222,0.026,0.449,0.051,0.681c0.024,0.232,0.062,0.452,0.116,0.66c0.053,0.208,0.133,0.385,0.239,0.529h-2.276
			c-0.126-0.328-0.203-0.72-0.232-1.175c-0.028-0.454-0.072-0.889-0.13-1.305c-0.078-0.542-0.242-0.938-0.493-1.189
			c-0.252-0.251-0.662-0.377-1.232-0.377h-2.276v4.046h-2.277v-10.353H292.025z M291.213,118.745c0.521,0,0.913-0.115,1.174-0.348
			c0.261-0.231,0.392-0.609,0.392-1.131c0-0.502-0.131-0.867-0.392-1.094c-0.261-0.228-0.652-0.341-1.174-0.341h-2.494v2.914
			H291.213z"/>
		<path fill="#002271" d="M303.203,114.062l3.872,10.353h-2.363l-0.783-2.306h-3.872l-0.812,2.306h-2.291l3.915-10.353H303.203z
			 M303.334,120.413l-1.305-3.799H302l-1.349,3.799H303.334z"/>
		<polygon fill="#002271" points="312.31,114.062 314.731,121.182 314.76,121.182 317.051,114.062 320.256,114.062 320.256,124.415 
			318.124,124.415 318.124,117.079 318.095,117.079 315.558,124.415 313.803,124.415 311.266,117.15 311.236,117.15 
			311.236,124.415 309.105,124.415 309.105,114.062 		"/>
	</g>
</g>
</svg>
